<svg width="265" height="54" viewBox="0 0 265 54" fill="none" xmlns="http://www.w3.org/2000/svg">
<path d="M62.0434 22.2427C63.5872 23.2862 68.0965 23.4143 71.7637 22.9872V26.3371C65.851 26.9473 57.9125 25.6598 57.4854 22.2427H62.0434Z" fill="#4678BC"/>
<path d="M23.6446 3.72323C23.4565 3.9153 23.2239 4.05784 22.9673 4.13815C22.668 4.22454 22.3574 4.26568 22.0459 4.26019C21.631 4.25319 21.2195 4.18324 20.8256 4.05272C20.3781 3.91442 19.8533 3.76187 19.2513 3.59509C18.5617 3.40612 17.8632 3.25135 17.1584 3.13135C16.2098 2.9834 15.2505 2.91401 14.2905 2.92389C13.4185 2.91544 12.5473 2.97665 11.685 3.10694C11.0451 3.19981 10.4184 3.36775 9.81786 3.60729C9.38416 3.77039 8.99524 4.03385 8.68292 4.37612C8.44456 4.64807 8.31239 4.99691 8.3107 5.35852C8.32187 5.59936 8.39888 5.83253 8.53337 6.03264C8.66785 6.23276 8.85465 6.39214 9.07343 6.49346C9.69565 6.84038 10.3631 7.09913 11.0565 7.26229C11.8945 7.47382 12.8464 7.66501 13.9122 7.83587C14.978 8.00672 16.0682 8.18774 17.1828 8.37893C18.2933 8.57012 19.3835 8.79182 20.4534 9.04403C21.4349 9.26968 22.3915 9.59264 23.309 10.0081C24.0692 10.3414 24.7541 10.825 25.3226 11.4298C25.8295 11.9882 26.1026 12.72 26.0854 13.474C26.075 14.3663 25.7583 15.228 25.1884 15.9147C24.4761 16.7658 23.5815 17.4456 22.5707 17.9039C21.2378 18.532 19.8285 18.9833 18.3787 19.2463C16.5031 19.5909 14.5987 19.7544 12.6918 19.7345C11.4715 19.7345 10.2511 19.6734 9.03072 19.5514C7.81035 19.4294 6.66728 19.2585 5.60149 19.0388C4.57002 18.8312 3.55136 18.5643 2.55057 18.2395C1.67435 17.9591 0.821535 17.6102 0 17.1961L2.08073 15.4754C2.3016 15.3403 2.53969 15.2356 2.78854 15.1642C3.09508 15.0713 3.41405 15.026 3.73432 15.0299C4.22642 15.0392 4.71337 15.1321 5.17436 15.3045C5.69098 15.4876 6.30117 15.691 7.00491 15.9147C7.82009 16.1665 8.64933 16.3702 9.48836 16.5249C10.6204 16.7227 11.7685 16.8146 12.9176 16.7995C14.5343 16.8712 16.1494 16.6245 17.6709 16.0733C18.7937 15.5893 19.355 14.8916 19.355 13.9804C19.3473 13.7277 19.2727 13.4815 19.1387 13.2671C19.0047 13.0527 18.8161 12.8777 18.5923 12.76C17.9575 12.3802 17.2681 12.1004 16.5482 11.9302C15.6074 11.6921 14.654 11.5067 13.6925 11.3749C12.6227 11.2244 11.5365 11.0597 10.4341 10.8807C9.33175 10.7017 8.24562 10.4881 7.17576 10.24C6.19976 10.0169 5.25056 9.68962 4.34451 9.2637C3.57423 8.91217 2.88777 8.40045 2.3309 7.76264C1.81501 7.13968 1.54385 6.35005 1.56817 5.54157C1.59237 4.77716 1.89133 4.04709 2.41023 3.48525C3.09008 2.72854 3.92172 2.12353 4.85096 1.70962C6.11764 1.14082 7.44982 0.73092 8.81716 0.48925C10.5875 0.158233 12.3859 0.000873523 14.1868 0.0194097C16.2996 0.00430163 18.4094 0.181992 20.49 0.55027C22.1845 0.836287 23.8354 1.33871 25.402 2.04522L23.6446 3.72323Z" fill="#A3CF62"/>
<path d="M79.3175 9.86822C79.3188 10.723 79.1356 11.568 78.7806 12.3456C78.4015 13.1663 77.881 13.914 77.2429 14.5544C76.5147 15.288 75.6942 15.9239 74.8022 16.446C73.7625 17.0606 72.665 17.5715 71.5255 17.9715C71.5255 17.9715 68.0718 18.9661 65.5457 19.3749C64.9904 19.4664 63.7151 19.5945 62.7571 19.6556C61.7991 19.7166 60.8106 19.7471 59.7794 19.7471C57.0949 19.7702 54.4149 19.5228 51.7799 19.0088C49.632 18.6035 47.5486 17.9098 45.5865 16.9464C44.0322 16.2033 42.6596 15.1285 41.5654 13.7978C40.6502 12.6916 40.1494 11.3009 40.1494 9.86517C40.1494 8.42945 40.6502 7.03869 41.5654 5.93253C42.6528 4.61194 44.0145 3.54381 45.556 2.80229C47.5182 1.83895 49.6015 1.1452 51.7494 0.739864C54.3843 0.225302 57.0644 -0.0220582 59.7489 0.00154196C62.43 -0.0207863 65.1063 0.230693 67.7362 0.752068C69.8751 1.15929 71.9498 1.85087 73.9052 2.80839C75.4425 3.54847 76.8001 4.61457 77.8836 5.93253C78.8006 7.04011 79.3071 8.43032 79.3175 9.86822ZM71.9465 9.86822C71.9677 8.84546 71.676 7.84062 71.1105 6.98815C70.4805 6.08883 69.6434 5.35426 68.6698 4.8464C67.4683 4.20512 66.1762 3.75041 64.8378 3.4979C61.4717 2.8754 58.02 2.8754 54.6539 3.4979C53.3079 3.75077 52.0078 4.20539 50.7975 4.8464C49.8262 5.35758 48.9898 6.09152 48.3568 6.98815C47.8004 7.83436 47.5039 8.82495 47.5039 9.83771C47.5039 10.8505 47.8004 11.8411 48.3568 12.6873C48.9886 13.5834 49.8254 14.3156 50.7975 14.8229C52.0088 15.4604 53.3086 15.9128 54.6539 16.1653C56.3341 16.4936 58.0431 16.651 59.755 16.6352C61.4629 16.6516 63.168 16.4941 64.8439 16.1653C66.1815 15.9133 67.4734 15.4607 68.6759 14.8229C69.6501 14.3188 70.4876 13.586 71.1166 12.6873C71.6703 11.852 71.9614 10.8703 71.9526 9.86822H71.9465Z" fill="#4678BC"/>
<path d="M111.2 16.623C112.451 16.6362 113.701 16.5197 114.928 16.2752C115.897 16.0878 116.832 15.7589 117.705 15.2989C118.395 14.938 118.989 14.417 119.437 13.7795C119.84 13.19 120.053 12.4918 120.048 11.7781V0.215149H127.229V11.772C127.226 12.9282 126.835 14.0498 126.119 14.9572C125.259 16.0275 124.168 16.8891 122.928 17.4773C121.328 18.2541 119.631 18.8104 117.881 19.1309C113.466 19.9232 108.946 19.9232 104.531 19.1309C102.785 18.8121 101.091 18.2557 99.4966 17.4773C98.261 16.8868 97.1744 16.0255 96.3176 14.9572C95.6011 14.0498 95.2101 12.9282 95.207 11.772V0.215149H102.389V11.7598C102.384 12.4734 102.597 13.1715 102.999 13.7612C103.445 14.3995 104.034 14.9242 104.72 15.2928C105.58 15.757 106.506 16.0882 107.466 16.2752C108.695 16.5201 109.946 16.6367 111.2 16.623Z" fill="#2051A3"/>
<path d="M177.765 19.5153H172.212C171.69 19.5327 171.169 19.4541 170.674 19.2834C170.335 19.1641 170.035 18.9528 169.808 18.6732L166.922 14.7375H150.935L148.049 18.6732C147.826 18.9357 147.535 19.1303 147.207 19.2346C146.715 19.415 146.193 19.4999 145.669 19.4848H140.086L155.261 0.215149H162.583L177.765 19.5153ZM152.747 12.2236H165.055L160.356 5.80443C160.143 5.51765 159.905 5.19425 159.648 4.79763C159.392 4.40101 159.136 3.99219 158.886 3.53455C158.638 3.99015 158.393 4.41321 158.153 4.80373C157.955 5.15943 157.737 5.50371 157.501 5.83494L152.747 12.2236Z" fill="#2C3B97"/>
<path d="M213.119 3.72365C212.931 3.91572 212.698 4.05827 212.441 4.13858C212.142 4.22497 211.832 4.2661 211.52 4.26061C211.105 4.25361 210.694 4.18366 210.3 4.05315C209.852 3.91484 209.327 3.7623 208.725 3.59551C208.026 3.40761 207.317 3.25487 206.602 3.13788C205.653 2.98992 204.694 2.92053 203.734 2.93041C202.862 2.92197 201.991 2.98318 201.129 3.11347C200.489 3.20634 199.862 3.37428 199.261 3.61382C198.828 3.77692 198.439 4.04038 198.127 4.38265C197.888 4.65459 197.756 5.00344 197.754 5.36505C197.765 5.60589 197.842 5.83906 197.977 6.03917C198.111 6.23928 198.298 6.39867 198.517 6.49999C199.148 6.85167 199.826 7.11255 200.531 7.27492C201.369 7.48645 202.321 7.67764 203.386 7.8485C204.452 8.01935 205.542 8.20037 206.657 8.39156C207.767 8.58275 208.858 8.80445 209.927 9.05666C210.909 9.28231 211.866 9.60527 212.783 10.0208C213.543 10.3541 214.228 10.8377 214.797 11.4425C215.304 12.0009 215.577 12.7326 215.559 13.4866C215.549 14.3789 215.232 15.2406 214.663 15.9273C213.95 16.7784 213.056 17.4583 212.045 17.9165C210.708 18.5435 209.294 18.9928 207.841 19.2528C205.965 19.5975 204.061 19.7609 202.154 19.741C200.933 19.741 199.713 19.68 198.493 19.5579C197.272 19.4359 196.129 19.265 195.063 19.0454C194.032 18.8377 193.013 18.5708 192.012 18.246C191.136 17.9656 190.283 17.6167 189.462 17.2026L191.543 15.4819C191.764 15.3468 192.002 15.2421 192.25 15.1707C192.549 15.0823 192.86 15.0391 193.172 15.0426C193.664 15.0519 194.151 15.1447 194.612 15.3171C195.128 15.5002 195.739 15.7036 196.442 15.9273C197.258 16.1791 198.087 16.3828 198.926 16.5375C200.058 16.7353 201.206 16.8272 202.355 16.8121C203.972 16.8838 205.587 16.6371 207.108 16.086C208.231 15.6019 208.793 14.9043 208.793 13.993C208.785 13.7403 208.71 13.4942 208.576 13.2797C208.442 13.0653 208.254 12.8903 208.03 12.7727C207.403 12.4042 206.724 12.1327 206.016 11.9672C205.075 11.7291 204.122 11.5438 203.161 11.412C202.091 11.2615 201.005 11.0967 199.902 10.9177C198.8 10.7387 197.714 10.5252 196.644 10.277C195.659 10.0556 194.702 9.72831 193.788 9.30073C193.018 8.94921 192.331 8.43748 191.775 7.79968C191.268 7.1602 191.014 6.35666 191.061 5.542C191.085 4.77759 191.384 4.04752 191.903 3.48568C192.583 2.72897 193.414 2.12396 194.343 1.71005C195.61 1.14125 196.942 0.731347 198.31 0.489678C200.08 0.15866 201.878 0.00130077 203.679 0.0198369C205.792 0.00472887 207.902 0.182419 209.982 0.550697C211.664 0.83389 213.302 1.3301 214.858 2.02734L213.119 3.72365Z" fill="#9C258F"/>
<path d="M264.331 19.5153H257.095V11.0825H238.99V19.5153H231.76V0.215149H238.997V8.51975H257.101V0.215149H264.337L264.331 19.5153Z" fill="#AC4399"/>
<path d="M82.96 47H80.244V46.888C80.244 46.6453 80.3093 46.4867 80.44 46.412C80.5053 46.384 80.5847 46.3653 80.678 46.356L81.308 46.328V42.604H76.674V46.3L77.696 46.384C77.7333 46.7947 77.6073 47 77.318 47H74.588V46.888C74.588 46.6453 74.6533 46.4867 74.784 46.412C74.8493 46.384 74.9287 46.3653 75.022 46.356L75.666 46.328V38.222L74.644 38.138C74.6067 37.7273 74.7327 37.522 75.022 37.522H77.752V37.634C77.752 37.886 77.6867 38.04 77.556 38.096C77.4907 38.1333 77.4113 38.1567 77.318 38.166L76.674 38.194V41.918H81.308V38.222L80.3 38.138C80.2627 37.7273 80.3887 37.522 80.678 37.522H83.394V37.634C83.394 37.886 83.3287 38.04 83.198 38.096C83.1327 38.1333 83.0533 38.1567 82.96 38.166L82.33 38.194V46.3L83.338 46.384C83.3753 46.7947 83.2493 47 82.96 47ZM90.7565 46.566C90.7565 47.0047 90.4671 47.224 89.8885 47.224C89.3098 47.224 88.9738 46.93 88.8805 46.342C88.2831 46.9207 87.5645 47.21 86.7245 47.21C86.0805 47.21 85.5671 47.0467 85.1845 46.72C84.8111 46.384 84.6245 45.9313 84.6245 45.362C84.6245 44.7927 84.8345 44.312 85.2545 43.92C85.6745 43.528 86.3698 43.332 87.3405 43.332C87.9098 43.332 88.4138 43.3973 88.8525 43.528V42.422C88.8525 41.89 88.7171 41.4653 88.4465 41.148C88.1851 40.8213 87.7978 40.658 87.2845 40.658C86.7711 40.658 86.4025 40.798 86.1785 41.078C85.9638 41.3487 85.8425 41.666 85.8145 42.03C85.5905 42.0487 85.4038 42.002 85.2545 41.89C85.1051 41.778 85.0305 41.596 85.0305 41.344C85.0305 40.9427 85.2358 40.6113 85.6465 40.35C86.0571 40.0793 86.5891 39.944 87.2425 39.944C87.8118 39.944 88.3531 40.084 88.8665 40.364C89.1558 40.5133 89.3891 40.7607 89.5665 41.106C89.7438 41.4513 89.8325 41.8713 89.8325 42.366V46.454L90.7565 46.566ZM88.8525 44.368C88.4231 44.1347 87.9238 44.018 87.3545 44.018C86.7851 44.018 86.3651 44.1253 86.0945 44.34C85.8331 44.5547 85.7025 44.8487 85.7025 45.222C85.7025 45.5953 85.8191 45.894 86.0525 46.118C86.2858 46.3327 86.6078 46.44 87.0185 46.44C87.6718 46.44 88.2831 46.188 88.8525 45.684V44.368ZM93.6678 41.078C93.9478 40.7793 94.2931 40.518 94.7038 40.294C95.1238 40.0607 95.4645 39.944 95.7258 39.944C95.9965 39.944 96.2158 40.0093 96.3838 40.14C96.5518 40.2613 96.6358 40.4573 96.6358 40.728C96.6358 41.2133 96.5565 41.5447 96.3978 41.722C96.2765 41.8247 96.0851 41.8667 95.8238 41.848C95.8238 41.176 95.6465 40.84 95.2918 40.84C94.8438 40.84 94.3025 41.1573 93.6678 41.792V46.342L94.8718 46.426C94.9091 46.8087 94.7785 47 94.4798 47H91.6798V46.888C91.6798 46.664 91.7451 46.524 91.8758 46.468C91.9411 46.4307 92.0205 46.4073 92.1138 46.398L92.7018 46.37V40.896L91.9458 40.812C91.7405 40.7933 91.6378 40.602 91.6378 40.238L93.5278 40L93.6258 41.078H93.6678ZM101.525 40.154H103.331C103.35 40.5273 103.21 40.7233 102.911 40.742L102.827 40.756L100.307 47H99.6493L97.2973 40.812L96.7513 40.728C96.7233 40.3453 96.8446 40.154 97.1153 40.154H99.3553V40.252C99.3553 40.3267 99.346 40.3827 99.3273 40.42C99.318 40.448 99.2993 40.49 99.2713 40.546C99.234 40.658 99.1126 40.7233 98.9073 40.742L98.3753 40.784L100.111 45.67L101.931 40.812L101.133 40.728C101.096 40.3453 101.227 40.154 101.525 40.154ZM109.401 43.318H105.005C104.996 43.4113 104.991 43.556 104.991 43.752C104.991 44.5453 105.159 45.1893 105.495 45.684C105.831 46.1693 106.354 46.412 107.063 46.412C107.772 46.412 108.449 46.16 109.093 45.656C109.205 45.7493 109.261 45.866 109.261 46.006C109.261 46.2673 109.004 46.5333 108.491 46.804C107.987 47.0747 107.418 47.21 106.783 47.21C105.915 47.21 105.22 46.9253 104.697 46.356C104.184 45.7867 103.927 44.9187 103.927 43.752C103.927 42.5853 104.235 41.6613 104.851 40.98C105.467 40.2893 106.195 39.944 107.035 39.944C107.875 39.944 108.482 40.21 108.855 40.742C109.228 41.274 109.41 41.9087 109.401 42.646V43.318ZM108.379 42.688C108.379 42.0627 108.258 41.568 108.015 41.204C107.772 40.8307 107.418 40.644 106.951 40.644C106.494 40.644 106.102 40.826 105.775 41.19C105.448 41.554 105.22 42.0533 105.089 42.688H108.379ZM110.408 41.904C110.417 41.2973 110.665 40.8167 111.15 40.462C111.635 40.1073 112.163 39.9347 112.732 39.944C113.311 39.9533 113.787 40.056 114.16 40.252C114.533 40.4387 114.715 40.7187 114.706 41.092C114.697 41.344 114.608 41.526 114.44 41.638C114.272 41.75 114.09 41.7967 113.894 41.778C113.903 41.4513 113.801 41.1853 113.586 40.98C113.381 40.7747 113.077 40.6673 112.676 40.658C112.275 40.6487 111.939 40.742 111.668 40.938C111.407 41.1247 111.271 41.3673 111.262 41.666C111.253 41.9647 111.383 42.2073 111.654 42.394C111.934 42.5713 112.326 42.758 112.83 42.954C113.334 43.15 113.675 43.2947 113.852 43.388C114.039 43.472 114.239 43.5887 114.454 43.738C114.855 44.018 115.047 44.4427 115.028 45.012C115.019 45.5813 114.771 46.0947 114.286 46.552C113.801 47 113.152 47.2193 112.34 47.21C111.761 47.1913 111.253 47.07 110.814 46.846C110.375 46.6127 110.156 46.2953 110.156 45.894C110.165 45.6793 110.235 45.5113 110.366 45.39C110.506 45.2593 110.674 45.1987 110.87 45.208C110.945 45.5907 111.131 45.8987 111.43 46.132C111.738 46.3653 112.116 46.4867 112.564 46.496C113.012 46.496 113.385 46.3933 113.684 46.188C113.983 45.9733 114.137 45.6933 114.146 45.348C114.155 45.0027 114.048 44.7413 113.824 44.564C113.609 44.3867 113.297 44.2233 112.886 44.074C112.475 43.9153 112.186 43.8033 112.018 43.738C111.859 43.6727 111.659 43.5747 111.416 43.444C111.183 43.3133 111.001 43.1827 110.87 43.052C110.562 42.7253 110.408 42.3427 110.408 41.904ZM117.639 40.798V44.914C117.639 45.4367 117.695 45.8147 117.807 46.048C117.929 46.2813 118.153 46.398 118.479 46.398C118.815 46.398 119.095 46.3607 119.319 46.286C119.543 46.2113 119.819 46.0433 120.145 45.782C120.313 45.8287 120.397 45.9687 120.397 46.202C120.397 46.4353 120.169 46.664 119.711 46.888C119.263 47.112 118.829 47.224 118.409 47.224C117.756 47.224 117.303 47.0373 117.051 46.664C116.799 46.2907 116.673 45.7493 116.673 45.04V40.798H115.651C115.623 40.3687 115.759 40.154 116.057 40.154H116.673V38.488L117.639 38.25V40.154H120.257C120.285 40.462 120.215 40.6767 120.047 40.798H117.639ZM126.622 40.798V44.914C126.622 45.4367 126.678 45.8147 126.79 46.048C126.911 46.2813 127.135 46.398 127.462 46.398C127.798 46.398 128.078 46.3607 128.302 46.286C128.526 46.2113 128.801 46.0433 129.128 45.782C129.296 45.8287 129.38 45.9687 129.38 46.202C129.38 46.4353 129.151 46.664 128.694 46.888C128.246 47.112 127.812 47.224 127.392 47.224C126.739 47.224 126.286 47.0373 126.034 46.664C125.782 46.2907 125.656 45.7493 125.656 45.04V40.798H124.634C124.606 40.3687 124.741 40.154 125.04 40.154H125.656V38.488L126.622 38.25V40.154H129.24C129.268 40.462 129.198 40.6767 129.03 40.798H126.622ZM137.514 47H134.854V46.888C134.854 46.5893 135.004 46.426 135.302 46.398L135.876 46.37V42.856C135.876 42.1747 135.732 41.666 135.442 41.33C135.153 40.9847 134.775 40.812 134.308 40.812C133.851 40.812 133.473 40.8867 133.174 41.036C132.885 41.1853 132.572 41.4093 132.236 41.708V46.342L133.3 46.426C133.338 46.8087 133.207 47 132.908 47H130.248V46.888C130.248 46.664 130.314 46.524 130.444 46.468C130.51 46.4307 130.589 46.4073 130.682 46.398L131.27 46.37V38.166L130.542 38.096C130.318 38.068 130.206 37.8673 130.206 37.494L132.236 37.228V40.938C132.88 40.2753 133.613 39.944 134.434 39.944C135.088 39.944 135.648 40.1727 136.114 40.63C136.581 41.078 136.819 41.792 136.828 42.772L136.842 46.342L137.892 46.426C137.93 46.8087 137.804 47 137.514 47ZM144.264 43.318H139.868C139.859 43.4113 139.854 43.556 139.854 43.752C139.854 44.5453 140.022 45.1893 140.358 45.684C140.694 46.1693 141.217 46.412 141.926 46.412C142.635 46.412 143.312 46.16 143.956 45.656C144.068 45.7493 144.124 45.866 144.124 46.006C144.124 46.2673 143.867 46.5333 143.354 46.804C142.85 47.0747 142.281 47.21 141.646 47.21C140.778 47.21 140.083 46.9253 139.56 46.356C139.047 45.7867 138.79 44.9187 138.79 43.752C138.79 42.5853 139.098 41.6613 139.714 40.98C140.33 40.2893 141.058 39.944 141.898 39.944C142.738 39.944 143.345 40.21 143.718 40.742C144.091 41.274 144.273 41.9087 144.264 42.646V43.318ZM143.242 42.688C143.242 42.0627 143.121 41.568 142.878 41.204C142.635 40.8307 142.281 40.644 141.814 40.644C141.357 40.644 140.965 40.826 140.638 41.19C140.311 41.554 140.083 42.0533 139.952 42.688H143.242ZM155.373 37.522V39.398C155.373 39.678 155.168 39.7993 154.757 39.762L154.603 38.236L151.131 38.222V41.806L153.819 41.624C153.875 41.9413 153.875 42.2773 153.819 42.632L151.131 42.478V46.3L152.349 46.384C152.387 46.7947 152.261 47 151.971 47H149.031C149.031 47 149.031 46.9627 149.031 46.888C149.031 46.6453 149.097 46.4867 149.227 46.412C149.293 46.384 149.372 46.3653 149.465 46.356L150.109 46.328V38.222L149.087 38.138C149.05 37.7273 149.181 37.522 149.479 37.522H155.373ZM155.859 40.56C155.859 40.2893 155.989 40.154 156.251 40.154H157.889V44.284C157.889 44.9747 158.033 45.4973 158.323 45.852C158.612 46.1973 159.041 46.37 159.611 46.37C160.189 46.37 160.773 46.1133 161.361 45.6V40.812L160.283 40.742C160.245 40.35 160.371 40.154 160.661 40.154H162.327V46.202L163.013 46.272C163.227 46.2907 163.335 46.4913 163.335 46.874L161.641 47.014L161.459 46.272C160.833 46.8973 160.119 47.21 159.317 47.21C158.673 47.21 158.113 46.9813 157.637 46.524C157.161 46.0667 156.923 45.348 156.923 44.368V40.812L155.859 40.742V40.56ZM165.928 40.798V44.914C165.928 45.4367 165.984 45.8147 166.096 46.048C166.218 46.2813 166.442 46.398 166.768 46.398C167.104 46.398 167.384 46.3607 167.608 46.286C167.832 46.2113 168.108 46.0433 168.434 45.782C168.602 45.8287 168.686 45.9687 168.686 46.202C168.686 46.4353 168.458 46.664 168 46.888C167.552 47.112 167.118 47.224 166.698 47.224C166.045 47.224 165.592 47.0373 165.34 46.664C165.088 46.2907 164.962 45.7493 164.962 45.04V40.798H163.94C163.912 40.3687 164.048 40.154 164.346 40.154H164.962V38.488L165.928 38.25V40.154H168.546C168.574 40.462 168.504 40.6767 168.336 40.798H165.928ZM169.107 40.56C169.107 40.2893 169.237 40.154 169.499 40.154H171.137V44.284C171.137 44.9747 171.281 45.4973 171.571 45.852C171.86 46.1973 172.289 46.37 172.859 46.37C173.437 46.37 174.021 46.1133 174.609 45.6V40.812L173.531 40.742C173.493 40.35 173.619 40.154 173.909 40.154H175.575V46.202L176.261 46.272C176.475 46.2907 176.583 46.4913 176.583 46.874L174.889 47.014L174.707 46.272C174.081 46.8973 173.367 47.21 172.565 47.21C171.921 47.21 171.361 46.9813 170.885 46.524C170.409 46.0667 170.171 45.348 170.171 44.368V40.812L169.107 40.742V40.56ZM179.555 41.078C179.835 40.7793 180.18 40.518 180.591 40.294C181.011 40.0607 181.351 39.944 181.613 39.944C181.883 39.944 182.103 40.0093 182.271 40.14C182.439 40.2613 182.523 40.4573 182.523 40.728C182.523 41.2133 182.443 41.5447 182.285 41.722C182.163 41.8247 181.972 41.8667 181.711 41.848C181.711 41.176 181.533 40.84 181.179 40.84C180.731 40.84 180.189 41.1573 179.555 41.792V46.342L180.759 46.426C180.796 46.8087 180.665 47 180.367 47H177.567V46.888C177.567 46.664 177.632 46.524 177.763 46.468C177.828 46.4307 177.907 46.4073 178.001 46.398L178.589 46.37V40.896L177.833 40.812C177.627 40.7933 177.525 40.602 177.525 40.238L179.415 40L179.513 41.078H179.555ZM188.602 43.318H184.206C184.197 43.4113 184.192 43.556 184.192 43.752C184.192 44.5453 184.36 45.1893 184.696 45.684C185.032 46.1693 185.555 46.412 186.264 46.412C186.973 46.412 187.65 46.16 188.294 45.656C188.406 45.7493 188.462 45.866 188.462 46.006C188.462 46.2673 188.205 46.5333 187.692 46.804C187.188 47.0747 186.619 47.21 185.984 47.21C185.116 47.21 184.421 46.9253 183.898 46.356C183.385 45.7867 183.128 44.9187 183.128 43.752C183.128 42.5853 183.436 41.6613 184.052 40.98C184.668 40.2893 185.396 39.944 186.236 39.944C187.076 39.944 187.683 40.21 188.056 40.742C188.429 41.274 188.611 41.9087 188.602 42.646V43.318ZM187.58 42.688C187.58 42.0627 187.459 41.568 187.216 41.204C186.973 40.8307 186.619 40.644 186.152 40.644C185.695 40.644 185.303 40.826 184.976 41.19C184.649 41.554 184.421 42.0533 184.29 42.688H187.58Z" fill="#55565A"/>
</svg>
